<?xml version="1.0" standalone="no"?>
<!DOCTYPE svg PUBLIC "-//W3C//DTD SVG 20010904//EN"
 "http://www.w3.org/TR/2001/REC-SVG-20010904/DTD/svg10.dtd">
<svg version="1.0" xmlns="http://www.w3.org/2000/svg"
 width="816.000000pt" height="816.000000pt" viewBox="0 0 816.000000 816.000000"
 preserveAspectRatio="xMidYMid meet">
<metadata>
Created by potrace 1.11, written by Peter Selinger 2001-2013
</metadata>
<g transform="translate(0.000000,816.000000) scale(0.100000,-0.100000)"
fill="#000000" stroke="none">
<path d="M3008 7821 l-557 -276 0 -484 c0 -266 -2 -485 -4 -487 -2 -3 -59 23
-126 56 -67 33 -126 60 -131 60 -6 0 -10 5 -10 10 0 6 -5 10 -11 10 -6 0 -81
34 -167 76 -86 42 -244 119 -350 170 l-192 94 -553 -278 -553 -277 1 -2413 0
-2412 550 -276 c477 -238 554 -274 575 -266 14 6 138 65 275 132 557 273 656
320 665 320 6 0 10 5 10 10 0 6 5 10 10 10 7 0 10 -170 10 -489 l0 -488 153
-76 c83 -42 334 -166 557 -276 l404 -201 36 14 c19 8 114 52 210 99 96 46 201
96 233 111 l57 28 203 -100 c111 -54 227 -111 258 -126 l56 -28 437 216 c240
119 440 216 445 216 5 0 11 3 13 8 2 4 41 25 88 47 47 22 96 47 110 56 l25 17
0 485 c0 481 0 485 20 477 11 -4 81 -38 155 -75 74 -37 185 -91 245 -120 61
-29 213 -103 338 -164 125 -61 230 -111 234 -111 9 0 1087 540 1097 550 9 9
12 4818 2 4827 -3 3 -252 129 -553 279 l-548 274 -110 -54 c-60 -30 -218 -107
-350 -172 -132 -65 -242 -118 -245 -119 -3 -1 -66 -31 -141 -68 -75 -37 -138
-67 -140 -67 -2 0 -4 217 -4 482 0 381 -2 484 -13 494 -14 15 -277 144 -292
144 -6 0 -10 5 -10 10 0 6 -4 10 -9 10 -5 0 -186 87 -401 194 l-392 195 -82
-40 c-44 -22 -161 -80 -259 -128 -98 -48 -180 -85 -183 -82 -3 4 -9 6 -12 6
-4 1 -38 16 -77 34 -38 19 -144 70 -235 114 -91 43 -174 82 -185 86 -15 6
-157 -60 -577 -268z m707 56 c61 -30 153 -75 206 -101 l96 -46 0 -225 1 -226
-107 -51 c-58 -28 -159 -77 -223 -109 l-117 -58 -435 217 c-240 119 -438 223
-441 230 -4 12 88 59 555 283 102 49 192 94 200 99 8 5 31 16 50 25 19 8 42
19 50 24 18 10 27 7 165 -62z m1015 16 c58 -28 191 -93 295 -144 105 -51 192
-94 195 -94 7 -2 91 -44 116 -58 11 -7 50 -25 87 -42 37 -16 68 -34 71 -41 5
-13 -860 -451 -882 -446 -7 2 -109 50 -227 107 l-214 104 -3 217 c-2 119 0
221 4 227 7 11 440 226 448 222 3 -1 52 -25 110 -52z m865 -1210 l0 -717 -445
-223 c-245 -122 -447 -223 -450 -223 -5 0 -4 1410 2 1414 3 3 263 137 593 306
180 93 299 156 300 159 1 0 1 -322 0 -716z m-2858 637 c75 -39 142 -75 149
-81 8 -6 14 -8 14 -4 0 4 10 1 23 -7 12 -9 139 -75 282 -148 143 -73 265 -137
272 -142 8 -7 11 -187 11 -713 0 -619 -2 -703 -15 -698 -8 3 -209 103 -446
222 l-432 216 -3 713 c-1 391 0 712 4 712 3 0 66 -32 141 -70z m1281 -1125 c0
-914 -1 -935 -19 -930 -11 4 -63 28 -117 54 -53 26 -130 63 -169 82 -72 34
-73 34 -73 74 -3 184 -1 1458 2 1460 3 2 371 194 374 195 1 0 2 -421 2 -935z
m530 -10 l0 -751 -31 -14 c-18 -7 -103 -48 -189 -90 l-158 -77 0 938 0 938
189 -97 189 -97 0 -750z m-2653 498 c239 -120 437 -223 439 -230 5 -11 -170
-102 -344 -181 -30 -14 -102 -16 -525 -17 l-490 -1 -60 26 c-170 77 -333 162
-329 174 4 9 205 118 224 120 13 2 146 72 152 81 4 6 8 7 8 4 0 -4 51 20 113
52 61 33 119 62 127 65 42 17 105 50 108 57 2 4 10 7 18 7 17 0 56 21 66 35 4
6 8 6 8 2 0 -5 10 -1 22 7 12 9 24 16 25 16 2 0 199 -98 438 -217z m5267 0
c241 -120 437 -224 438 -231 0 -7 -84 -54 -187 -105 l-188 -91 -495 -1 -495
-1 -192 93 c-106 51 -193 98 -192 105 0 9 832 437 869 447 3 1 202 -97 442
-216z m-6527 -423 c74 -36 134 -68 134 -72 1 -7 -185 -98 -199 -98 -5 0 -24
-9 -44 -20 -19 -12 -36 -17 -39 -13 -9 15 -4 274 5 271 5 -2 69 -33 143 -68z
m1804 -70 c0 -77 -2 -140 -3 -140 -1 0 -20 8 -42 19 -21 10 -85 40 -141 66
-57 27 -103 52 -103 56 0 4 12 10 28 14 15 3 34 12 42 19 8 6 44 25 80 41 36
16 73 36 83 44 9 8 17 10 17 6 0 -5 5 -4 12 3 7 7 16 12 20 12 5 0 8 -63 7
-140z m3466 66 l139 -69 -59 -28 c-33 -16 -98 -47 -144 -69 -47 -22 -87 -36
-90 -31 -3 5 -5 62 -4 128 2 148 1 145 11 141 4 -1 71 -34 147 -72z m1800 -60
c0 -74 -3 -137 -5 -139 -3 -3 -67 25 -144 62 l-139 67 139 72 c77 39 141 71
144 72 3 0 5 -60 5 -134z m-5540 -175 c88 -46 164 -86 168 -90 9 -9 -849 -441
-873 -441 -8 0 -49 18 -90 40 -41 21 -91 46 -110 55 -134 61 -664 333 -667
342 -2 6 6 15 19 19 13 4 40 17 60 30 20 13 43 25 50 26 7 2 15 5 18 8 3 3 46
26 95 51 l90 45 540 -1 540 -1 160 -83z m5149 60 c22 -13 87 -47 145 -76 58
-30 115 -60 126 -68 18 -14 -13 -31 -420 -235 l-440 -219 -432 216 c-237 119
-432 221 -434 226 -1 6 74 48 167 95 l169 85 540 -1 540 0 39 -23z m-6714
-334 c78 -37 380 -184 738 -359 34 -17 62 -36 63 -42 0 -6 2 -361 2 -788 1
-427 4 -778 7 -781 3 -3 248 -126 545 -274 531 -265 574 -283 612 -260 7 5 11
253 11 752 0 410 2 748 5 751 5 5 187 -83 829 -401 l76 -38 0 -2024 0 -2024
-20 7 c-11 3 -100 46 -197 94 -97 48 -292 145 -433 215 l-258 126 0 790 0 789
-542 272 c-465 232 -549 271 -583 269 -22 -1 -42 -4 -45 -7 -3 -3 -5 -341 -6
-752 0 -501 -4 -747 -10 -749 -6 -2 -60 21 -120 50 -60 30 -217 107 -349 172
-132 64 -285 139 -341 166 l-101 50 0 2017 c0 1109 1 2020 4 2025 2 4 7 6 11
3 4 -2 50 -24 102 -49z m1839 -54 c0 -60 0 -112 1 -118 1 -5 2 -14 1 -20 -2
-14 -2 -451 0 -461 1 -5 1 -13 0 -19 -2 -14 -2 -451 0 -461 1 -5 1 -13 0 -19
-1 -5 -2 -54 -1 -107 l1 -98 -312 -155 c-172 -85 -319 -155 -326 -155 -7 0
-13 -4 -13 -8 0 -5 -17 -16 -37 -24 -21 -9 -80 -36 -130 -62 l-93 -45 0 707 0
708 448 221 c246 122 451 222 455 222 4 1 7 -47 6 -106z m529 -74 c202 -100
377 -185 390 -190 48 -19 19 -42 -183 -144 -110 -56 -225 -115 -255 -130 -30
-16 -61 -30 -69 -31 -8 -2 -17 -6 -20 -11 -5 -6 -64 -37 -233 -120 -5 -3 -8
178 -8 401 0 223 2 406 5 406 3 0 171 -81 373 -181z m2626 -211 c-1 -216 -2
-399 -3 -406 0 -8 -70 23 -183 80 -101 51 -185 95 -188 98 -3 3 -99 52 -213
109 -114 56 -206 108 -204 114 3 11 80 58 101 61 6 1 22 8 36 16 14 8 102 51
195 98 94 46 233 114 310 153 77 38 142 69 145 69 3 0 5 -177 4 -392z m616
169 l445 -222 1 -700 c0 -385 -1 -703 -3 -706 -2 -6 -283 127 -368 174 -24 13
-172 86 -380 187 -82 40 -152 75 -154 76 -5 5 -7 1404 -2 1410 2 2 7 4 10 3 3
0 206 -100 451 -222z m1495 -1805 l0 -2022 -100 -49 c-55 -27 -256 -126 -447
-220 -191 -94 -350 -171 -355 -171 -4 0 -8 337 -8 749 0 412 -3 753 -8 757 -4
4 -28 6 -53 6 -38 -2 -134 -46 -578 -268 -292 -146 -535 -269 -539 -273 -5 -5
-9 -362 -9 -794 l0 -785 -82 -40 c-44 -22 -249 -123 -453 -224 l-373 -184 -1
50 c0 66 0 3907 1 3963 l0 42 174 86 c96 47 179 85 185 85 5 0 11 3 13 8 4 8
255 132 269 132 5 0 9 5 9 10 0 6 5 10 10 10 6 0 55 22 108 49 54 26 107 51
119 55 l22 7 0 -752 c-1 -536 3 -754 10 -759 36 -22 102 6 626 265 297 147
542 269 545 272 3 3 5 358 5 789 l0 785 30 17 c17 9 33 21 36 25 3 5 9 8 13 7
7 -2 454 217 696 340 63 32 119 57 125 56 7 -2 10 -690 10 -2024z m-3910 1434
l220 -114 1 -219 2 -220 -212 -108 c-116 -59 -216 -112 -221 -116 -10 -7 -632
295 -646 314 -3 5 -9 8 -13 7 -15 -4 -236 114 -233 124 3 9 863 446 877 445 3
0 104 -51 225 -113z m1260 -103 c293 -147 435 -223 433 -232 -3 -14 -841 -439
-868 -440 -9 -1 -51 17 -95 40 -44 23 -142 73 -217 111 l-138 70 0 222 0 221
58 27 c31 16 126 63 210 107 83 43 152 76 152 73 0 -3 5 -1 12 6 7 7 13 12 15
12 2 0 199 -98 438 -217z m-1039 -2639 c-1 -1790 -3 -2028 -16 -2035 -59 -34
-352 -170 -356 -166 -4 4 -8 3751 -4 4013 0 31 4 34 158 108 86 42 168 83 182
91 14 8 28 15 31 15 4 0 6 -912 5 -2026z m371 1921 l162 -78 0 -2024 c0 -1129
-3 -2023 -8 -2023 -5 0 -44 17 -87 39 -44 21 -125 60 -181 87 l-103 49 0 2028
0 2028 28 -14 c15 -8 100 -49 189 -92z m2163 -567 c0 -4 -180 -97 -400 -207
-309 -154 -400 -196 -401 -183 -1 23 -1 752 0 777 1 18 55 -7 401 -180 220
-110 400 -203 400 -207z m-4108 351 c1 -28 2 -52 0 -54 -3 -3 -4 -445 -1 -461
1 -5 1 -13 0 -19 -1 -5 -2 -59 -1 -118 l1 -109 -318 162 c-175 89 -322 165
-328 169 -5 3 -12 6 -15 6 -19 3 -131 68 -128 75 3 9 762 398 780 400 3 0 8
-23 10 -51z m-1 -2008 c3 -23 3 -44 0 -46 -4 -5 -4 -118 0 -141 1 -5 0 -13 -1
-19 -4 -23 -1 -136 5 -144 3 -5 1 -12 -4 -15 -5 -3 -7 -15 -4 -25 4 -17 -39
-41 -318 -179 -178 -88 -384 -189 -456 -225 l-132 -66 -1 668 c0 367 2 669 4
672 3 2 206 -95 453 -217 l448 -222 6 -41z m4215 -181 c0 -369 -3 -670 -8
-670 -13 0 -143 64 -146 73 -2 4 -8 7 -13 7 -5 0 -112 50 -237 111 -384 189
-487 240 -496 249 -5 5 -9 107 -10 227 l-1 218 190 95 c105 52 192 97 195 100
3 3 25 14 50 25 32 14 470 230 476 235 0 0 0 -301 0 -670z"/>
</g>
</svg>
